<svg width="1920" height="1080" viewBox="0 0 1920 1080" xmlns="http://www.w3.org/2000/svg"><path d="M 0,1080 C 0,1080 0,270 0,270 C 257.7333333333333,236.53333333333333 515.4666666666666,203.06666666666666 744,210 C 972.5333333333334,216.93333333333334 1171.8666666666668,264.26666666666665 1363,281 C 1554.1333333333332,297.73333333333335 1737.0666666666666,283.8666666666667 1920,270 C 1920,270 1920,1080 1920,1080 Z" fill="#686dff" opacity="0.15"/><path d="M 0,1080 C 0,1080 0,540 0,540 C 192.80000000000007,535.7333333333333 385.60000000000014,531.4666666666667 628,511 C 870.3999999999999,490.53333333333336 1162.3999999999999,453.86666666666673 1386,456 C 1609.6000000000001,458.13333333333327 1764.8000000000002,499.0666666666666 1920,540 C 1920,540 1920,1080 1920,1080 Z" fill="#686dff" opacity="0.3"/><path d="M 0,1080 C 0,1080 0,810 0,810 C 252,765.0666666666666 504,720.1333333333333 687,733 C 870,745.8666666666667 984,816.5333333333334 1178,839 C 1372,861.4666666666666 1646,835.7333333333333 1920,810 C 1920,810 1920,1080 1920,1080 Z" fill="#686dff" opacity="0.44999999999999996"/></svg>